<?xml version="1.0" encoding="utf-8"?>
<!-- Generator: Adobe Illustrator 23.0.1, SVG Export Plug-In . SVG Version: 6.00 Build 0)  -->
<svg version="1.1" id="Calque_1" xmlns="http://www.w3.org/2000/svg" xmlns:xlink="http://www.w3.org/1999/xlink" x="0px" y="0px"
	 viewBox="0 0 100 100" style="enable-background:new 0 0 100 100;" xml:space="preserve">
<style type="text/css">
	.st0{fill:#5555F9;}
	.st1{fill:#FFFFFF;}
</style>
<g>
	<path class="st0" d="M-187.1,68.9c4-4.3,6.5-10.1,6.5-16.5c0-4.7-1.4-9.2-3.7-12.9c-13.5-6.2-26.1-6.6-38.5-3.6
		c-4,4.3-6.5,10.1-6.5,16.5c0,3.3,0.7,6.5,1.9,9.3C-212.3,68.4-201.1,72-187.1,68.9z"/>
</g>
<g>
	<circle class="st1" cx="-204.8" cy="50.6" r="7.5"/>
</g>
<path class="st1" d="M-157.9,56.3c-1.9-2.5-7-8.3-14.7-13.8c-6.7-4.8-17.5-11.6-30.6-11.6c-17.5,0-33.7,8.3-34.2,8.5
	c-6.7,2.8-11.7,6-15,8.1c-0.9,0.6-3.7,2.4-3.7,2.4l-0.6,0.3l1.3,0.7c4,2.1,7.8,4.1,11.4,6.1c5.1,2.8,10,5.4,14.6,7.7
	c11.4,5.6,21.2,9.2,32,9.2c3,0,6.1-0.3,9.4-0.9c9.5-1.8,19.6-7,29.8-15.5l0.7-0.6L-157.9,56.3z M-187.3,68.3
	c-13.2,3-24.2-0.2-39.8-7.1c-3.1-1.4-6.4-2.9-9.9-4.5c-4.6-2.2-9.9-4.6-15.6-7.1c1.5-0.8,3.4-1.8,5.5-3c2.5-1.4,5.3-2.9,8.5-4.7
	c1-0.5,1.9-1,2.9-1.6c10.4-4.3,21.3-6,32.2-5.3c9.5,0.6,19,4.1,28.4,10.3c6.5,4.3,11.2,8.8,13.7,11.2c0.1,0.1,0.1,0.2,0.2,0.2
	C-171.3,62.9-179.6,66.6-187.3,68.3z"/>
<path class="st1" d="M-242.9,28.3l-0.3,0.2c-0.4,0.3-1,0.1-1.2-0.3l-7.4-11.7c-0.3-0.4-0.1-1,0.3-1.2l0.3-0.2c0.4-0.3,1-0.1,1.2,0.3
	l7.4,11.7C-242.3,27.5-242.4,28.1-242.9,28.3z"/>
<path class="st1" d="M-203.9,19.5h-0.3c-0.5,0-0.9-0.4-0.9-0.9V5.1c0-0.5,0.4-0.9,0.9-0.9h0.4c0.5,0,0.9,0.4,0.9,0.9v13.4
	C-202.9,19.1-203.3,19.5-203.9,19.5z"/>
<path class="st1" d="M-173,29.5l-0.2-0.1c-0.4-0.2-0.6-0.8-0.3-1.2l7.9-13.6c0.2-0.4,0.8-0.6,1.2-0.3l0.2,0.1
	c0.4,0.2,0.6,0.8,0.3,1.2l-7.9,13.6C-172,29.6-172.6,29.7-173,29.5z"/>
<g>
	<path class="st0" d="M-49.9,69.2c4-4.3,6.5-10.1,6.5-16.5c0-4.7-1.4-9.2-3.7-12.9c-13.5-6.2-26.1-6.6-38.5-3.6
		c-4,4.3-6.5,10.1-6.5,16.5c0,3.3,0.7,6.5,1.9,9.3C-75.1,68.8-63.9,72.3-49.9,69.2z"/>
</g>
<g>
	<circle class="st1" cx="-67.6" cy="50.9" r="7.5"/>
</g>
<path class="st1" d="M-60.2,74.2c-10.8,0-20.6-3.6-32-9.2c-4.6-2.3-9.5-4.9-14.6-7.7c-3.6-2-7.4-4-11.4-6.1l-1.3-0.7l1.3-0.7
	c1.5-0.9,4.3-2.4,7.8-4.3c2.5-1.3,5.3-2.9,8.5-4.7c8.9-4.9,21-10.4,35.9-9.6l0,0C-53,32-42.3,38-35.5,42.9
	c7.7,5.5,12.8,11.3,14.7,13.8l0.4,0.6l-0.6,0.5c-10.2,8.5-20.2,13.8-29.8,15.6C-54.1,74-57.2,74.2-60.2,74.2z M-116.3,50.4
	c3.6,1.9,6.9,3.7,10.1,5.4c5.2,2.8,10,5.4,14.6,7.7c19.3,9.5,29.8,10.2,40.5,8.2C-42,70-32.4,65-22.6,57c-2.1-2.7-6.9-7.9-13.8-12.9
	c-6.6-4.8-17-10.6-29.8-11.3l0,0c-14.4-0.9-25.8,4.3-35.1,9.4c-3.2,1.8-6,3.3-8.5,4.7C-112.5,48.3-114.7,49.6-116.3,50.4z"/>
<path class="st1" d="M-59.9,71.3c-9.6,0-18.9-3.1-30.7-8.4c-3.1-1.4-6.4-2.9-9.9-4.5c-5-2.3-10.7-5-17-7.7l-1.5-0.6l1.4-0.8
	c0.6-0.4,1.5-0.9,2.5-1.5c3.3-2.1,8.3-5.3,15-8.1c11-4.7,22.5-6.7,34-6c9.7,0.6,19.6,4.2,29.2,10.6c6.6,4.4,11.4,9,13.9,11.4
	c0.3,0.3,0.7,0.6,0.9,0.9l0.8,0.7l-0.9,0.5C-33,64.5-41.7,68.4-49.8,70.2C-53.3,71-56.6,71.3-59.9,71.3z M-115.5,49.9
	c5.7,2.5,10.9,4.9,15.6,7.1c3.5,1.6,6.8,3.1,9.9,4.5c15.6,6.9,26.5,10.1,39.8,7.1c7.7-1.7,16-5.4,26.1-11.6c-0.1,0-0.1-0.1-0.2-0.2
	c-2.5-2.4-7.2-6.9-13.7-11.2c-9.4-6.2-18.9-9.7-28.4-10.3c-11.3-0.7-22.5,1.2-33.3,5.8c-6.5,2.8-11.5,5.9-14.8,8
	C-114.7,49.4-115.1,49.7-115.5,49.9z"/>
<path class="st1" d="M-105.7,28.7l-0.3,0.2c-0.4,0.3-1,0.1-1.2-0.3l-7.4-11.7c-0.3-0.4-0.1-1,0.3-1.2l0.3-0.2c0.4-0.3,1-0.1,1.2,0.3
	l7.4,11.7C-105.1,27.9-105.3,28.4-105.7,28.7z"/>
<path class="st1" d="M-66.7,19.8H-67c-0.5,0-0.9-0.4-0.9-0.9V5.5c0-0.5,0.4-0.9,0.9-0.9h0.4c0.5,0,0.9,0.4,0.9,0.9v13.4
	C-65.7,19.4-66.2,19.8-66.7,19.8z"/>
<path class="st1" d="M-35.8,29.8l-0.2-0.1c-0.4-0.2-0.6-0.8-0.3-1.2l7.9-13.6c0.2-0.4,0.8-0.6,1.2-0.3l0.2,0.1
	c0.4,0.2,0.6,0.8,0.3,1.2l-7.9,13.6C-34.8,29.9-35.4,30-35.8,29.8z"/>
<g>
	<path class="st0" d="M70.1,72.7c4-4.3,6.5-10.1,6.5-16.5c0-4.7-1.4-9.2-3.7-12.9c-13.5-6.2-26.1-6.6-38.5-3.6
		c-4,4.3-6.5,10.1-6.5,16.5c0,3.3,0.7,6.5,1.9,9.3C44.9,72.2,56.1,75.8,70.1,72.7z"/>
</g>
<g>
	<circle class="st1" cx="52.4" cy="54.4" r="7.5"/>
</g>
<path class="st1" d="M99.3,60.1c-1.9-2.5-7-8.3-14.7-13.8C77.9,41.5,67.1,34.7,54,34.7c-17.5,0-33.7,8.3-34.2,8.5
	c-6.7,2.8-11.7,6-15,8.1c-0.9,0.6-3.7,2.4-3.7,2.4L0.5,54l1.3,0.7c4,2.1,7.8,4.1,11.4,6.1c5.1,2.8,10,5.4,14.6,7.7
	c11.4,5.6,21.2,9.2,32,9.2c3,0,6.1-0.3,9.4-0.9c9.5-1.8,19.6-7,29.8-15.5l0.7-0.6L99.3,60.1z M69.9,72.1c-13.2,3-24.2-0.2-39.8-7.1
	c-3.1-1.4-6.4-2.9-9.9-4.5c-4.6-2.2-9.9-4.6-15.6-7.1c1.5-0.8,3.4-1.8,5.5-3c2.5-1.4,5.3-2.9,8.5-4.7c1-0.5,1.9-1,2.9-1.6
	c10.4-4.3,21.3-6,32.2-5.3c9.5,0.6,19,4.1,28.4,10.3c6.5,4.3,11.2,8.8,13.7,11.2c0.1,0.1,0.1,0.2,0.2,0.2
	C85.9,66.7,77.6,70.4,69.9,72.1z"/>
<path class="st1" d="M14.3,32.1L14,32.3c-0.4,0.3-1,0.1-1.2-0.3L5.4,20.3c-0.3-0.4-0.1-1,0.3-1.2L6,18.9c0.4-0.3,1-0.1,1.2,0.3
	l7.4,11.7C14.9,31.3,14.8,31.9,14.3,32.1z"/>
<path class="st1" d="M53.3,23.3H53c-0.5,0-0.9-0.4-0.9-0.9V8.9C52.1,8.4,52.5,8,53,8h0.4c0.5,0,0.9,0.4,0.9,0.9v13.4
	C54.3,22.9,53.9,23.3,53.3,23.3z"/>
<path class="st1" d="M84.2,33.3L84,33.2c-0.4-0.2-0.6-0.8-0.3-1.2l7.9-13.6c0.2-0.4,0.8-0.6,1.2-0.3l0.2,0.1
	c0.4,0.2,0.6,0.8,0.3,1.2L85.4,33C85.2,33.4,84.6,33.5,84.2,33.3z"/>
</svg>
