<?xml version="1.0" encoding="utf-8"?>
<!-- Generator: Adobe Illustrator 23.0.1, SVG Export Plug-In . SVG Version: 6.00 Build 0)  -->
<svg version="1.1" id="Calque_1" xmlns="http://www.w3.org/2000/svg" xmlns:xlink="http://www.w3.org/1999/xlink" x="0px" y="0px"
	 viewBox="0 0 100 100" style="enable-background:new 0 0 100 100;" xml:space="preserve">
<style type="text/css">
	.st0{fill:#FCFCFC;}
</style>
<g>
	<path class="st0" d="M76.6,33.8C76.6,33.8,76.6,33.8,76.6,33.8c-0.1-0.1-0.2-0.2-0.2-0.3c-0.1-0.1-0.2-0.2-0.3-0.2
		c0,0-0.1-0.1-0.1-0.1c-0.1-0.1-0.3-0.2-0.4-0.3c-0.1-0.1-0.2-0.1-0.3-0.2c-0.2-0.2-0.6-0.3-0.9-0.5c0,0,0,0-0.1,0
		C74.2,32,74,32,73.9,31.9c-0.2-0.1-0.3-0.2-0.5-0.3c-0.2-0.1-0.5-0.2-0.7-0.3c-0.3-0.1-0.5-0.2-0.8-0.3s-0.5-0.1-0.7-0.3
		c0,0,0,0-0.1,0c-0.2-0.1-0.5-0.1-0.7-0.2c-0.2-0.1-0.4-0.1-0.6-0.2c-0.1-0.1-0.3-0.1-0.5-0.1c-0.1,0-0.3,0-0.4-0.1c0,0,0,0,0,0
		c-0.1-0.1-0.3-0.2-0.5-0.1c-0.2,0.1-0.3,0-0.5-0.1c0-0.1-0.1-0.1-0.2-0.1c-0.2,0-0.3,0-0.5,0c-0.2,0-0.3-0.1-0.4,0
		c-0.2,0.1-0.3,0-0.5,0.1c-0.3,0-0.6,0-0.8,0.1c-0.1,0-0.2,0-0.2,0.1c-0.1,0.2-0.3,0.2-0.4,0.3c-0.2,0.1-0.3,0.4-0.5,0.5
		c0,0,0,0,0,0.1c0.1,0,0.1,0,0.2,0c0,0,0.1,0.1,0.1,0.1c0,0-0.1,0.1-0.1,0.1c-0.2,0.1-0.2-0.1-0.3-0.2c-0.1,0.1-0.1,0.2-0.2,0.3
		c-0.1,0.1,0,0.2,0,0.3c0,0,0,0.1-0.1,0.1c0,0.1-0.1,0.2-0.1,0.3c0,0.1,0,0.2,0,0.3c0,0.2,0,0.3,0,0.5c0,0.2,0,0.2,0.2,0.2
		c0.1,0,0.1,0,0.2,0.1c0,0.1,0.1,0.1,0.2,0.1c0.2-0.1,0.4-0.2,0.7-0.3c0.1,0,0.2,0,0.3,0.1c0.1,0,0.1,0,0.2,0c0.1,0,0.3-0.1,0.5,0
		c0,0,0.1,0,0.2,0c0.2,0,0.5,0,0.7,0c0.4,0,0.8,0,1.2,0.1c0.2,0,0.5,0.1,0.7,0.2c0.2,0.1,0.4,0.1,0.6,0.2c0.3,0.1,0.7,0.2,1,0.3
		c0.3,0.1,0.5,0.2,0.9,0.2c0,0,0.1,0,0.1,0c0.1,0.1,0.3,0.2,0.4,0.2c0.2,0.1,0.4,0.2,0.7,0.3c0.1,0,0.2,0.1,0.3,0.1
		c0,0.1,0.2,0.2,0.3,0.1c0.1,0,0.2,0,0.3,0.1c0,0,0,0,0.1,0.1c0.2,0.1,0.3,0.2,0.5,0.3c0,0-0.1,0.1,0,0.2c0.1,0.1,0.1,0,0.2,0
		c0,0,0.1,0,0.2,0c0.1,0,0.2,0.1,0.2,0.1c0.2,0.1,0.3,0.3,0.5,0.3c0,0.4,0.4,0.5,0.5,0.9c0,0-0.1,0.1-0.1,0.1
		C75.3,37,75.2,37,75,37.1c-0.1,0.1-0.3,0.1-0.4,0.2c-0.4,0.1-0.8,0.2-1.2,0.3c-0.2,0-0.3,0-0.5,0c-0.1,0-0.1,0-0.2,0
		c-0.1,0-0.3,0.1-0.5,0.1c-0.3,0-0.5,0-0.8,0.1c-0.1,0-0.3,0-0.4,0c0,0,0,0-0.1,0c0,0.1,0,0.1,0,0.2c-0.1,0-0.2,0-0.3,0
		c0.1-0.1,0.1-0.1,0.1-0.2c-0.4-0.1-0.9-0.1-1.3,0c0.1,0,0.1,0.1,0.1,0.1c0.2,0,0.5,0,0.7,0c0.1,0,0.1,0,0.2,0c0,0,0,0,0,0.1
		c-0.3,0-0.7-0.1-1,0.1c0-0.2-0.1-0.2-0.2-0.2c-0.1,0-0.3,0-0.4,0c-0.2,0-0.3,0-0.4-0.1c0.2,0,0.3,0,0.5,0c0.2,0,0.3,0,0.5,0
		c-0.1-0.1-0.1-0.1-0.2-0.1c-0.2,0-0.3,0-0.5,0c-0.2,0-0.5-0.1-0.7-0.1c-0.1,0-0.1,0-0.2,0.1c0.1,0.1,0.3,0,0.5,0.2
		c-0.1,0-0.1,0-0.2,0c-0.3,0-0.5,0-0.8,0c-0.2,0-0.3,0-0.4,0c0,0,0,0-0.1,0c-0.1,0.1-0.2,0-0.3,0c-0.1,0-0.2,0-0.3,0
		c-0.4,0-0.9-0.1-1.3-0.1c-0.1,0-0.1,0-0.2,0.1c0,0-0.1,0-0.1,0c0-0.1,0-0.1,0-0.1c-0.1,0-0.2,0-0.3,0c-0.1,0-0.2-0.1-0.3-0.1
		c0,0.1,0,0.1,0,0.1c-0.1,0-0.1-0.1-0.2-0.1c0,0.1,0,0.1-0.1,0.2c-0.1-0.1-0.1-0.1-0.1-0.2c0,0-0.1-0.1-0.1-0.1
		c-0.2,0-0.5,0-0.8-0.1c-0.1,0-0.2,0-0.2,0.1c-0.2-0.2-0.3-0.2-0.5-0.1c-0.1,0-0.2-0.1-0.2-0.1c-0.1,0-0.3,0-0.4,0
		c-0.2-0.1-0.4-0.1-0.7,0c0,0,0,0,0,0c0-0.1-0.1-0.1-0.2-0.1c-0.1,0-0.1,0-0.2,0c-0.1,0-0.2,0-0.3,0c0,0-0.1,0-0.1,0
		c-0.1,0-0.2-0.1-0.3-0.1c-0.2-0.1-0.4,0-0.7,0c0.1,0.1,0.1,0.1,0.2,0.2c-0.1,0.1-0.3,0.1-0.4-0.1c-0.1-0.1-0.2-0.2-0.3-0.2
		c-0.1,0-0.2,0-0.4,0c0,0,0,0,0,0c0,0,0.1,0.1,0.1,0.1c-0.1,0.1-0.2,0.1-0.2,0c0,0,0-0.1,0.1-0.1c-0.6,0-1.1-0.1-1.7-0.1
		c0,0.1-0.1,0.1-0.1,0.2c-0.1,0-0.2-0.1-0.3-0.1c0,0,0,0-0.1,0c-0.2,0-0.5,0-0.7,0c-0.1,0-0.1,0-0.1-0.1c-0.1-0.1-0.2-0.1-0.3-0.1
		c0,0,0,0.1,0.1,0.2c-0.1,0-0.2,0-0.3-0.1c0-0.1,0.2,0,0.2-0.2c0,0,0.1-0.1,0.2-0.1c-0.1,0-0.2,0-0.3,0c0,0,0,0.1,0,0.1
		c-0.1,0.1-0.2,0.2-0.4,0.2c0,0-0.1,0-0.1-0.1c0,0.1-0.1,0.1-0.2,0.1c0,0-0.1,0-0.1-0.1c0-0.1-0.1-0.1-0.1-0.1c-0.2,0-0.3,0-0.5,0
		c-0.1,0-0.1,0-0.2,0c0,0,0,0,0,0c0,0,0,0,0,0c0,0,0,0,0,0c0,0,0,0,0,0c-0.1,0-0.2,0-0.3,0c0.1,0.1,0.2,0.1,0.3,0c0,0.1,0,0.1,0,0.2
		c-0.2,0-0.3,0-0.4-0.1c0-0.1,0-0.1-0.1-0.1c0,0-0.1,0-0.1,0c0,0.1,0,0.1-0.1,0.1c-0.1,0-0.1,0-0.2,0c-0.1,0-0.2,0-0.3,0
		c0-0.1,0-0.1,0-0.2c-0.2,0-0.5,0.1-0.7-0.1c0,0.1,0,0.1,0,0.2c-0.1,0-0.1,0-0.2,0c-0.4,0-0.9-0.1-1.3-0.1c-0.2,0-0.3,0-0.5,0
		c-0.4-0.1-0.8-0.1-1.2-0.1c-0.2,0-0.3,0-0.5-0.2c-0.1-0.1-0.1,0-0.2,0c0,0,0.1,0.1,0.1,0.1c-0.2,0-0.4,0-0.6,0
		c-0.1,0-0.2,0-0.2-0.1c-0.1-0.1-0.3-0.1-0.5,0c0,0-0.1-0.1-0.1-0.1c-0.2,0-0.4-0.1-0.6,0c0,0-0.1,0-0.1,0c-0.2,0-0.3,0-0.5,0
		c0,0,0,0,0-0.1c0.1,0,0.1,0,0.2,0c-0.2,0-0.3-0.1-0.5-0.1c0,0.1,0,0.1-0.1,0.1c-0.1,0-0.1,0-0.2,0c-0.1,0-0.2,0-0.2,0
		c-0.1-0.1-0.2-0.1-0.2-0.2c-0.1,0.1-0.2,0.1-0.3,0.1c-0.2,0-0.4,0-0.6,0c-0.3,0-0.6,0-0.8-0.1c0,0,0,0-0.1,0c-0.1,0-0.2,0-0.3,0
		c-0.2,0-0.3-0.1-0.5,0c-0.3,0-0.5,0-0.7-0.1c0,0-0.1,0-0.1,0c-0.2,0.1-0.3,0-0.4-0.1c-0.1-0.1-0.1-0.1-0.2,0c0,0.1-0.1,0.1-0.1,0.2
		c-0.1-0.1-0.1-0.1-0.1-0.1c0,0,0,0-0.1,0c-0.1,0-0.1,0-0.1-0.1c0,0,0.1-0.1,0.1-0.1c0,0,0.1,0,0.1,0c0,0,0,0,0,0
		c-0.1,0-0.2,0-0.3,0c0,0.1-0.1,0.2-0.2,0.2c-0.2,0-0.3,0-0.4,0c-0.2,0-0.4-0.1-0.6,0c-0.1,0-0.3,0-0.5,0c-0.2,0-0.4,0-0.7-0.1
		c0,0,0.1-0.1,0.1-0.1c-0.2,0-0.3,0-0.5,0c0.1,0,0.1,0,0.2,0.1c-0.2,0-0.3,0.1-0.4,0.1c0,0-0.1-0.1-0.1-0.1c0.1,0,0.1,0,0.2-0.1
		c0,0,0,0,0,0c-0.1,0-0.2,0-0.3,0c0,0.1,0,0.2-0.1,0.2c-0.1,0-0.1-0.1-0.2-0.2c-0.1,0-0.2,0-0.2,0c0,0.2-0.2,0.1-0.2,0.1
		c-0.1,0-0.3,0-0.5,0c0,0-0.1,0-0.2,0c0,0,0.1-0.1,0.1-0.1c-0.2,0-0.5-0.1-0.6,0.1c0,0-0.1,0-0.1,0c-0.3,0-0.6,0-0.9,0
		c-0.1,0-0.2,0-0.3-0.1c0,0,0,0-0.1,0c-0.1,0-0.2,0-0.3,0c0,0,0,0,0,0c0.1,0,0.2,0,0.3,0.1c-0.3,0.1-1.2,0.2-1.3,0.1
		c0.1-0.1,0.3,0,0.4-0.1c-0.1,0-0.1,0-0.1,0c-0.2,0-0.4,0-0.5,0.2c0,0-0.1,0-0.1,0.1c-0.1,0-0.2,0-0.3,0.1c0,0-0.1-0.1-0.2-0.1
		c0,0,0.1,0,0.1-0.1c0,0,0,0,0,0c-0.7,0-1.5,0.1-2.2,0.3c0,0.1,0,0.1,0,0.2c-0.1,0-0.2,0-0.3,0c-0.1-0.2-0.2-0.1-0.4-0.1
		c-0.4,0.1-0.7,0.2-1,0.4c-0.1,0.1-0.2,0.1-0.4,0.1c-0.2,0-0.3,0.1-0.4,0.2c0,0.1,0,0.2,0,0.3c0,0.3,0,0.5-0.1,0.8
		c0,0.1,0,0.2-0.1,0.3c0,0,0,0.1,0,0.1c0,0.2,0.1,0.3,0,0.5c0.1,0.2,0,0.3,0,0.5c0,0.2,0.1,0.4,0.1,0.5c0,0.1,0.1,0.2,0,0.2
		c0,0.2,0.1,0.4,0.1,0.5c0.1,0.2,0,0.3,0.2,0.5c0.1,0.1,0.1,0.2,0.2,0.3c0.1,0.2,0.4,0.2,0.5,0c0.1-0.2,0.2-0.4,0.2-0.6
		c0-0.2,0-0.4,0.2-0.5c0.1-0.1,0.2-0.2,0.4-0.2c0.2-0.1,0.3-0.1,0.5-0.2c0.1-0.1,0.2-0.1,0.4-0.1c0.2,0,0.5,0,0.7-0.1
		c0.1-0.1,0.2-0.1,0.4-0.1c0.1,0,0.2,0,0.3,0c0.2,0,0.3-0.1,0.5-0.1c0.1,0,0.3,0,0.4,0c0-0.1,0.1-0.1,0.1-0.2
		c0.2,0.1,0.3,0.1,0.5,0.1c0.2-0.1,0.4,0,0.6-0.1c0,0,0,0,0.1,0c0,0,0.1,0,0.1,0c0.2-0.1,0.5-0.1,0.8-0.1c0.3-0.1,0.6-0.1,1-0.1
		c0,0,0.1,0,0.2,0c0.1,0.1,0.3,0.1,0.4,0c0.2,0,0.3,0,0.5,0c0.2,0,0.3,0,0.5,0c0.2,0,0.5,0,0.7,0c0.2,0.1,0.5,0,0.7,0
		c0.2,0,0.3,0,0.5,0c0.1,0,0.1,0,0.2,0c0.1,0,0.3,0,0.4,0c0.2,0,0.5,0,0.7-0.1c0,0,0.1,0,0.2,0c0.1,0.1,0.3,0.1,0.4,0
		c0,0,0.1,0,0.1,0c0.1,0.1,0.3,0.1,0.5,0c0.1,0,0.1,0,0.2,0c0.1,0,0.1,0,0.2,0c0.2-0.1,0.4,0,0.7,0c0.4,0,0.7,0.1,1.1,0.1
		c0.2,0,0.4,0,0.7,0c0.1,0,0.3,0.1,0.4,0c0,0,0,0,0.1,0c0.2,0.1,0.4,0.1,0.6,0c0.2,0,0.5,0,0.7,0.1c0.2,0,0.5,0,0.7,0
		c0.1,0,0.3,0,0.4,0c0.2,0.1,0.6,0.1,0.8-0.1c0,0,0.1,0,0.2,0c0,0.1,0,0.1,0,0.2c0.1,0,0.3,0.1,0.3-0.1c0.3,0,0.6,0.1,0.9,0.1
		c0,0,0-0.2,0.2-0.1c0,0.1-0.1,0.2-0.2,0.2c0,0-0.1,0-0.1,0.1C47,40,47,40.2,47,40.5c0.1,0.2,0,0.5,0,0.7c0,0.1,0,0.2,0,0.3
		c0,0.1,0.1,0.2,0.1,0.2c-0.1,0.1-0.2,0.1-0.1,0.3c0,0.1,0,0.2,0,0.2c0,0.1,0,0.2,0,0.2c-0.1,0.1-0.1,0.3,0,0.4
		c0.1,0.2,0,0.5,0.1,0.7c0,0.2,0,0.5,0,0.7c0,0.2,0,0.4,0,0.6c0,0.1,0,0.2-0.1,0.3c0,0.1,0,0.2,0,0.3c0,0.1,0,0.2,0.1,0.3
		c0.1,0.1,0,0.2,0,0.3c0,0.1-0.1,0.1-0.1,0.2c0,0,0,0.1,0.1,0.2c-0.2,0.1-0.2,0.1,0,0.3c0,0,0,0.1,0.1,0.1c0,0-0.1,0.1-0.1,0.1
		c0,0.1,0.1,0.3,0.1,0.4c0,0.2,0,0.4,0,0.5c0,0.3,0,0.6,0,0.8c0,0.1,0,0.3-0.1,0.4c-0.1,0.1-0.1,0.2-0.1,0.3c0,0.4-0.1,0.8-0.1,1.1
		c0,0.2-0.1,0.5,0.1,0.7c-0.1,0.2-0.2,0-0.2,0c0,0.1,0,0.2-0.1,0.2s0,0.1,0,0.2c0,0.1-0.1,0.1-0.1,0.2c0,0.2,0,0.5,0,0.7
		c0,0.1,0,0.2-0.1,0.3c0,0,0,0.1,0,0.1c0,0.1,0,0.2-0.1,0.3c0,0.1,0,0.3-0.1,0.4c0,0.2,0,0.3-0.1,0.5c0,0.1-0.1,0.2-0.1,0.3
		c0,0.2,0,0.5,0,0.7c0,0.3-0.1,0.6-0.2,0.9c-0.1,0.2-0.1,0.5-0.1,0.7c0,0.2,0,0.4-0.1,0.5c-0.1,0.1-0.1,0.3-0.2,0.4c0,0,0,0.1,0,0.1
		c-0.1,0.1-0.1,0.2-0.1,0.4c0,0.1,0,0.1,0,0.2c0,0.2-0.1,0.3-0.1,0.5c0,0.3-0.1,0.5-0.2,0.8c-0.1,0.3-0.2,0.7-0.4,1
		c-0.1,0.3-0.1,0.6-0.2,0.8c-0.1,0.2-0.1,0.5-0.2,0.7c-0.1,0.2-0.1,0.4-0.2,0.6c-0.1,0.2-0.1,0.4-0.2,0.5c-0.1,0.2-0.1,0.5-0.3,0.7
		c0,0,0,0,0,0.1c0,0.2-0.1,0.3-0.1,0.4c-0.1,0.2-0.1,0.5-0.3,0.7c0,0,0,0.1,0,0.1c-0.1,0.2-0.1,0.5-0.3,0.7
		c-0.1,0.1-0.1,0.2-0.2,0.4c0,0.1-0.1,0.2-0.2,0.3c0,0-0.1,0.1-0.1,0.1C42.1,67,42,67.2,42,67.4c-0.1,0.3-0.3,0.6-0.5,0.8
		c-0.1,0.2-0.3,0.3-0.3,0.5c0,0,0,0-0.1,0.1c-0.2,0.2-0.5,0.5-0.7,0.8c-0.3,0.3-0.6,0.7-1,0.9c0,0,0,0,0,0c-0.2,0.3-0.5,0.4-0.8,0.6
		c-0.3,0.2-0.6,0.3-1,0.5c-0.1,0-0.2,0.1-0.3,0.1c-0.4,0.1-0.8,0.1-1.2,0.2c-0.2,0-0.4,0-0.6,0c-0.5-0.1-0.9-0.4-1.2-0.7
		c-0.1-0.1-0.2-0.2-0.3-0.3c-0.2-0.2-0.4-0.4-0.6-0.6c-0.1-0.1-0.2-0.3-0.3-0.5c0,0-0.1-0.1-0.1-0.1c-0.2-0.2-0.3-0.3-0.4-0.6
		c-0.1-0.2-0.3-0.5-0.3-0.8c0-0.2-0.2-0.4-0.3-0.6c-0.1-0.2-0.2-0.3-0.2-0.5c0,0,0-0.1,0-0.1c-0.1-0.2-0.2-0.4-0.3-0.6
		c-0.1-0.2-0.1-0.5-0.2-0.7c-0.1-0.2,0-0.5-0.2-0.7c0,0,0,0,0,0c0.1-0.1-0.1-0.2-0.1-0.2c0-0.1,0.1-0.2,0.1-0.3c0-0.2-0.1-0.5,0-0.7
		c0,0,0,0,0,0c0-0.3-0.1-0.5-0.1-0.8c0-0.2-0.1-0.4-0.2-0.6c0.1-0.1,0.1-0.2,0.1-0.3c0-0.2,0-0.3,0-0.5c0-0.1,0-0.2-0.2-0.2
		c0,0-0.1-0.1-0.1-0.1c0,0,0.1-0.1,0.1-0.1c0,0,0,0,0.1,0c0-0.1,0-0.2,0-0.4s0-0.2,0-0.4c0-0.3,0-0.5,0-0.8c0-0.2-0.1-0.2-0.2-0.2
		c0-0.1,0.1-0.1,0.1-0.2c0-0.2,0.1-0.4,0-0.6c0,0,0,0,0-0.1c0-0.1,0-0.2,0-0.2c0-0.5,0-0.9,0-1.4c0-0.1,0-0.2,0-0.4
		c0-0.2,0-0.4,0-0.6c0.1-0.3,0.1-0.6,0-1c0,0,0-0.1,0-0.2c0.1-0.2,0.2-0.5,0.2-0.7c0-0.1,0.1-0.3,0-0.5c-0.1-0.2,0-0.3,0.1-0.5
		c0.1-0.1,0.1-0.2,0.1-0.3c0-0.1,0-0.3,0-0.4c0-0.1,0.1-0.1,0-0.2c0,0-0.1-0.1-0.2-0.1c0.2-0.2,0.3-0.4,0.2-0.7c0,0,0,0,0,0
		c0.2-0.1,0.2-0.2,0.1-0.4c0-0.1,0-0.1,0-0.2c0-0.1,0.1-0.2,0.2-0.3c0.2-0.2,0.2-0.4,0.2-0.7c0.2-0.1,0.2-0.1,0.2-0.3
		c0,0-0.1,0-0.1-0.1c-0.1-0.2,0-0.3,0.2-0.3c0.2,0,0.3-0.1,0.3-0.2c0-0.2,0.1-0.2,0.2-0.3c0,0,0.1-0.1,0.1-0.1
		c0.1-0.2,0.4-0.3,0.5-0.5c0,0,0,0,0,0c0.2,0,0.3-0.1,0.5-0.2c0.2-0.1,0.3-0.1,0.5-0.1c0.1,0,0.2,0,0.2,0c0.1,0,0.2,0,0.3,0.1
		c0.1,0.2,0.3,0.3,0.4,0.4c0.1,0.1,0.2,0.2,0.2,0.4c0,0.1,0,0.3,0.2,0.4c0,0,0,0.1,0,0.2c0,0.1,0,0.1,0,0.2c0.1,0.1,0.2,0.2,0.2,0.4
		c0,0,0,0,0,0c0.1,0.2,0.1,0.4,0.3,0.6c0,0,0,0,0,0.1c0,0.1,0,0.1,0.1,0.2c0.1,0.2,0.1,0.4,0.2,0.6c0,0,0,0.1,0,0.1
		c0.1,0.1,0.1,0.2,0.2,0.3c0,0.1-0.1,0.1-0.1,0.2c0,0.2,0.1,0.5,0.1,0.7c0,0.2,0.1,0.4,0.2,0.6c0.1,0.3,0.1,0.6,0.2,0.9
		c0,0.1,0.1,0.3,0.1,0.4c0,0.3,0.1,0.6,0.1,0.9c0,0.3,0,0.6,0.1,0.8c0,0.2,0,0.1,0,0c0.3,1.9,2.7,0.9,2.8,0.8c0,0.1,0,0.1,0,0
		c0-0.2,0-0.5,0-0.8c0-0.2-0.1-0.3-0.1-0.5c0-0.1,0-0.2,0-0.3c0,0,0-0.1,0-0.1c-0.1-0.1-0.1-0.3,0-0.4c0,0,0-0.1,0-0.1
		c0-0.2,0-0.5-0.1-0.7c0-0.1,0-0.2,0-0.2c0-0.3,0-0.6-0.2-0.9c-0.1,0-0.1,0-0.2,0c0,0,0,0,0,0c0.1-0.1,0.2-0.1,0.3-0.2
		c0-0.1-0.1-0.1-0.1-0.2c0-0.3-0.2-0.5-0.2-0.7c0-0.2-0.1-0.4-0.1-0.5c0-0.1,0-0.2-0.1-0.3c0-0.1-0.1-0.2-0.1-0.2c0-0.1,0-0.2,0-0.3
		c0-0.1,0-0.3-0.1-0.3c-0.1-0.1-0.1-0.1-0.1-0.2c0-0.2-0.2-0.4-0.2-0.6c0-0.1-0.1-0.2-0.1-0.3c0-0.3-0.2-0.5-0.4-0.6
		c-0.2-0.1-0.3-0.3-0.5-0.4c0,0,0-0.1-0.1-0.1c0-0.1-0.1-0.1-0.1-0.2c-0.2-0.1-0.4-0.3-0.6-0.4c-0.1-0.1-0.3-0.2-0.4-0.3
		c-0.1-0.1-0.2-0.1-0.3-0.2c-0.2-0.1-0.4-0.2-0.6-0.2c-0.1,0-0.2-0.1-0.2-0.1c-0.2-0.1-0.5-0.2-0.7-0.3c-0.2-0.1-0.4-0.1-0.6-0.2
		c-0.2,0-0.4,0-0.6,0s-0.4,0-0.6,0.1c-0.4,0.1-0.7,0.2-1.1,0.4c-0.4,0.2-0.7,0.4-1,0.7c-0.2,0.2-0.4,0.5-0.6,0.7
		c0,0-0.1,0.1-0.1,0.2c0,0.1,0,0.2-0.1,0.3c-0.1,0.1-0.2,0.2-0.2,0.4c-0.1,0.2-0.3,0.4-0.4,0.6c-0.1,0.1-0.1,0.2-0.2,0.4
		c0,0,0,0.1,0,0.2c-0.1,0.1-0.1,0.2-0.1,0.4c0,0.1,0,0.2,0,0.3c0,0.2-0.1,0.4-0.1,0.6c0,0.2,0,0.5-0.1,0.7c-0.1,0.1-0.1,0.3-0.1,0.4
		c0,0.1,0,0.3,0,0.4c0,0.2,0,0.3,0,0.4c0,0.1,0,0.3,0,0.4c-0.1,0.3-0.2,0.6-0.2,0.8c0,0.1,0,0.3,0.1,0.4c0,0.2-0.1,0.5-0.1,0.7
		c0,0,0,0.1,0,0.1c0,0.2,0,0.3,0,0.5c0,0.2,0,0.4,0,0.6c0,0.2,0.1,0.4-0.1,0.5c0,0,0,0.1,0,0.2c0,0.1,0,0.2,0,0.3
		c0,0.3,0,0.5,0.1,0.8c0,0.1,0,0.2,0,0.3c0,0.3,0,0.5,0,0.8c0,0,0,0.1,0,0.1c0,0.3,0,0.5,0,0.8c0,0.2,0,0.4,0.1,0.7
		c0,0.2,0,0.4,0.1,0.6c0,0.3,0.1,0.6,0.1,0.9c0,0.3,0.1,0.5,0.1,0.8c0,0.1,0,0.2,0.1,0.3c0.1,0.1,0.1,0.2,0.1,0.3
		c0,0.1,0,0.3,0.1,0.4c0.1,0.1,0.2,0.2,0,0.4c0,0,0,0,0,0c0,0.2,0.1,0.3,0.1,0.5c0.1,0.2,0.2,0.4,0.2,0.6c0,0.1,0.1,0.2,0.1,0.2
		c0,0.1,0,0.2,0,0.2c0.1,0.1,0.1,0.3,0.2,0.4c0.2,0.5,0.4,1,0.6,1.5c0.2,0.3,0.3,0.6,0.4,0.9c0,0,0,0.1,0.1,0.1
		c0.2,0.2,0.3,0.4,0.4,0.6c0,0.1,0.1,0.1,0.1,0.2c0,0,0.1,0.1,0.1,0.1c0.1,0.4,0.5,0.6,0.7,0.8c0.1,0.1,0.3,0.2,0.5,0.4
		c0.3,0.2,0.5,0.4,0.8,0.6c0.2,0.1,0.5,0.3,0.8,0.4c0.3,0.1,0.6,0.2,0.9,0.3c0,0,0.1,0,0.1,0c0.2,0,0.4,0,0.5,0.1
		c0.1,0,0.3,0.1,0.4,0.1c0.9,0.1,1.7,0.1,2.6,0c0.2,0,0.4-0.1,0.7-0.1c0.2,0,0.5-0.1,0.7-0.1c0.3,0,0.6-0.2,0.9-0.3
		c0.7-0.3,1.3-0.7,1.9-1.1c0.4-0.3,0.7-0.6,1-0.9c0.3-0.3,0.6-0.6,0.8-1c0,0,0,0,0,0c0.1-0.1,0.1-0.2,0.2-0.3c0,0,0-0.1,0.1-0.1
		c0.1-0.2,0.2-0.3,0.3-0.5c0-0.1,0.1-0.1,0.1-0.1c0.1-0.1,0.2-0.2,0.2-0.4c0.1-0.3,0.2-0.6,0.4-0.8c0.2-0.2,0.3-0.5,0.4-0.8
		c0.1-0.2,0.1-0.3,0.2-0.5c0.1-0.2,0.2-0.3,0.3-0.5c0-0.1,0-0.1,0.1-0.2c0.1-0.1,0.1-0.2,0.2-0.3c0-0.2,0.1-0.3,0.2-0.5
		c0.1-0.1,0.1-0.2,0.2-0.3c0-0.1,0.1-0.2,0.1-0.2c0.1-0.1,0.1-0.2,0.1-0.3c0-0.1,0-0.2,0.1-0.3c0.1-0.2,0.3-0.3,0.3-0.6
		c0,0,0-0.1,0-0.1c0.1-0.2,0.3-0.5,0.2-0.8c0.1-0.1,0.2-0.2,0.2-0.4c0-0.2,0-0.4,0.2-0.6c0.1-0.1,0.1-0.3,0.1-0.5c0-0.1,0-0.1,0-0.2
		c0.1-0.2,0.1-0.4,0.2-0.6c0.1-0.2,0.1-0.4,0.1-0.5c0.1-0.3,0.2-0.5,0.2-0.8c0-0.2,0.1-0.5,0.1-0.7c0,0,0-0.1,0-0.2
		c0.1-0.2,0.2-0.4,0.2-0.6c0-0.2,0.1-0.4,0.2-0.6c0-0.1,0-0.2,0-0.2c0-0.3,0-0.6,0.1-0.9c0-0.1,0-0.2,0-0.3c0-0.3,0.2-0.5,0.1-0.8
		c0,0,0,0,0,0c0.2-0.2,0.1-0.5,0.2-0.7c0,0,0-0.1,0-0.1c0-0.2-0.1-0.4,0-0.5c0,0,0-0.1,0-0.1c0-0.2,0-0.3,0.1-0.5c0,0,0-0.1,0-0.2
		c0-0.1,0-0.2,0-0.4c0-0.1,0-0.1,0-0.2c-0.1,0-0.1,0-0.2-0.1c0,0,0,0,0-0.1c0,0,0.1,0,0.1-0.1c0-0.1-0.1-0.2,0-0.2c0,0,0,0,0-0.1
		c0-0.1,0-0.3,0-0.4c0-0.1-0.1-0.3,0-0.4c0,0,0-0.1,0-0.1c0,0,0-0.1-0.1-0.1c0.1-0.1,0.1-0.2,0.1-0.4c0-0.1,0-0.2,0-0.4
		c0-0.1,0-0.3,0-0.5c0,0,0-0.1,0-0.1c0-0.1,0.1-0.2,0-0.3c0-0.2,0.1-0.4,0-0.6c0.1-0.3,0.1-0.6,0-0.9c0,0,0-0.1,0-0.1
		c0.1-0.1,0.1-0.2,0.2-0.3c0-0.1,0-0.3,0-0.4c0,0,0,0,0,0c0-0.3,0-0.6,0.1-0.9c0-0.3,0-0.6,0-0.9c0-0.1,0-0.2-0.1-0.3
		c0,0,0.1-0.1,0.1-0.1c0-0.2,0.1-0.3,0-0.5c0,0,0-0.1,0-0.2c0-0.1,0-0.2,0-0.3c-0.1-0.3,0-0.6,0-0.9c0-0.2,0-0.3,0-0.5
		c0.1-0.4-0.1-0.8-0.2-1.1c0-0.1,0-0.2,0-0.2c0.2,0,0.4,0,0.5-0.1c0.1,0,0.1,0,0.2,0c0.1,0,0.1,0.1,0.2,0c0.1,0,0.3,0,0.4,0
		c0.1,0,0.1,0,0.2,0c0.1,0,0.2-0.1,0.2,0.1c0,0,0.1,0,0.1,0c0.1,0,0.1,0,0.2,0c0.2,0,0.5,0.1,0.7,0.1c0,0,0.1,0,0.1,0
		c0.1-0.1,0.3-0.1,0.4,0c0.1,0,0.3,0.1,0.4,0c0.1,0,0.3,0,0.4,0c0.1,0,0.2,0.1,0.4,0c0.1,0,0.2,0,0.4,0c0,0,0.1,0,0.1,0
		c0.1-0.1,0.3,0,0.4,0.1c0-0.1,0.1-0.1,0.2-0.1c0.1,0,0.1,0.1,0.2,0c0.1-0.1,0.2,0,0.3,0.1c0.1,0,0.1,0,0.2,0c0.2,0,0.3,0,0.5,0
		c0,0,0,0,0,0c0,0,0.1,0,0.1,0c0.1-0.1,0.2,0,0.2,0c0.1,0,0.2,0.1,0.2,0c0.1-0.1,0.2,0,0.4,0c0,0,0.1,0.1,0.2,0c0.1-0.1,0.2,0,0.3,0
		c0,0,0.1,0,0.1,0c0,0.1,0.1,0.1,0.1,0.1c0.2,0.1,0.4,0,0.6,0.1c0,0,0-0.1,0-0.1c0.1,0,0.2,0,0.2,0c0.1,0.1,0.2,0.1,0.2,0
		c0,0,0,0,0.1,0c0.2,0,0.3,0.1,0.5,0.1c0.1,0,0.1,0,0.2,0.1c0.3,0,0.5,0.1,0.8,0.1c0.1,0,0.1,0,0.2,0s0.1-0.1,0.1-0.1
		c0.1,0,0.1,0.1,0.2,0.1c0.1,0,0.2,0,0.3,0c0.1-0.1,0.1-0.1,0.2,0c0.2,0,0.3,0,0.5,0c0,0,0-0.1,0-0.1c0,0,0,0,0-0.1c0,0,0,0,0,0
		c0,0,0.1,0,0.1,0.1c0.3,0.1,0.5,0.3,0.8,0c0,0,0,0,0.1,0c0.1,0.1,0.2,0.2,0.3,0.1c0.2-0.1,0.3,0,0.5,0c0.1,0,0.3-0.1,0.3,0
		c0.2,0.1,0.6,0.1,0.8,0.3c0,0,0.1,0,0.1,0c0.1,0,0.2,0,0.3,0c0.4,0,0.8,0.1,1.2,0c0,0,0,0,0.1,0c0.1,0.1,0.2,0.1,0.2,0.1
		c0.2,0,0.5,0,0.7-0.1c0,0,0.1,0,0.1,0c0.1,0.1,0.2,0,0.3,0c0.1,0,0.3,0,0.4,0c0.1,0,0.2,0,0.2,0c0.1-0.1,0.3-0.1,0.4,0
		c0,0,0,0,0.1,0c0,0,0-0.1,0-0.1c0.1,0,0.2,0,0.3,0.1c0.2,0.1,0.5,0.1,0.7,0.1c0.1,0,0.2-0.1,0.2-0.2c0.2,0.1,0.3,0.1,0.5,0.1
		c0.1,0,0.2,0,0.3,0c0.2,0,0.3,0,0.3-0.2c0.1,0,0.1,0,0.2,0c0.1,0,0.3,0,0.4-0.1c0,0,0.1,0,0.2-0.1c0.1-0.1,0.2-0.1,0.4-0.1
		c0,0,0.1,0,0.1,0c0.3,0,0.5-0.2,0.8-0.3c0.1,0,0.1-0.1,0.1-0.1c0-0.1,0.1-0.2,0.2-0.2c0.1,0,0.2-0.1,0.2-0.1
		c0.1-0.1,0.2-0.2,0.4-0.3c0.1-0.1,0.3-0.2,0.3-0.4c0,0,0-0.1,0.1-0.1c0.3-0.4,0.5-0.8,0.7-1.3c0.1-0.2,0.1-0.4,0.2-0.6
		c0.1-0.3,0.1-0.5,0.1-0.8c0-0.6-0.1-1.2-0.1-1.7C76.9,34.4,76.7,34.1,76.6,33.8z M68.7,30.5c0-0.1-0.1-0.1,0.1-0.2
		c0,0.1,0,0.1,0,0.2C68.7,30.5,68.7,30.5,68.7,30.5z M72.1,32.4c0,0-0.1,0.1-0.1,0.1c0,0-0.1,0-0.1,0c0-0.1,0-0.2,0-0.4
		c0,0,0.1-0.1,0.1-0.1C72.2,32.2,72.2,32.3,72.1,32.4z M28.5,36.1C28.5,36.1,28.5,36.1,28.5,36.1C28.6,36.1,28.6,36.1,28.5,36.1
		C28.5,36.1,28.5,36.1,28.5,36.1C28.4,36.1,28.4,36.1,28.5,36.1C28.4,36.1,28.5,36.1,28.5,36.1z M28.4,36.3c0.1,0,0.1-0.1,0.2,0
		C28.6,36.4,28.5,36.3,28.4,36.3z M28.9,36C28.9,36,28.9,36,28.9,36C28.9,36,28.9,36,28.9,36C28.9,36,28.9,36,28.9,36
		C28.9,36,28.9,36,28.9,36z M28.8,36.4c0.1,0,0.1,0,0.3,0.1C29,36.6,29,36.6,28.8,36.4z M29.3,36c0,0-0.1,0-0.1,0c0,0,0,0,0,0
		C29.3,35.9,29.3,35.9,29.3,36C29.4,35.9,29.4,36,29.3,36C29.4,36,29.4,36,29.3,36z M34.3,36.2c-0.1,0-0.1-0.1-0.1-0.2
		C34.3,36.1,34.4,36.1,34.3,36.2C34.4,36.2,34.3,36.2,34.3,36.2z M36.9,36.1C36.9,36.1,36.9,36.1,36.9,36.1c0-0.1,0.1-0.1,0.1-0.1
		c0,0,0,0.1,0,0.1C37,36.1,36.9,36.1,36.9,36.1z M37.7,36.1C37.7,36.1,37.7,36.1,37.7,36.1c-0.1-0.1,0-0.1,0.1-0.2
		C37.8,36,37.8,36.1,37.7,36.1z M38.3,36.1c0.1-0.1,0.2-0.1,0.3-0.1C38.6,36.1,38.5,36,38.3,36.1z M39.3,36.4
		C39.3,36.4,39.3,36.4,39.3,36.4C39.3,36.3,39.3,36.3,39.3,36.4C39.4,36.3,39.4,36.3,39.3,36.4C39.4,36.4,39.4,36.4,39.3,36.4z
		 M41.5,36.5c-0.1-0.1-0.1-0.1-0.2-0.2c0,0,0-0.1,0-0.1c0.1,0,0.1,0,0.1,0c0,0,0.1,0.1,0.1,0.2c0.1,0,0.1-0.1,0.2-0.1
		C41.7,36.4,41.7,36.5,41.5,36.5z M42,36.3c0,0-0.1,0-0.1,0c0,0,0-0.1,0-0.1C42,36.2,42,36.2,42,36.3C42,36.3,42,36.3,42,36.3z
		 M42.7,36.3c0,0-0.1,0-0.1,0c0,0,0,0,0,0C42.7,36.3,42.7,36.3,42.7,36.3C42.7,36.3,42.7,36.3,42.7,36.3z M43.3,36.3
		c-0.1,0-0.2,0-0.3,0c0,0,0,0,0-0.1C43.1,36.3,43.2,36.3,43.3,36.3C43.3,36.3,43.3,36.3,43.3,36.3z M44.6,36.9
		C44.6,36.9,44.6,36.9,44.6,36.9c0,0,0-0.1,0-0.2c0,0,0,0,0,0C44.6,36.8,44.6,36.9,44.6,36.9z M45.4,36.3
		C45.4,36.3,45.4,36.2,45.4,36.3C45.4,36.2,45.4,36.2,45.4,36.3C45.5,36.2,45.5,36.2,45.4,36.3C45.5,36.3,45.4,36.3,45.4,36.3z
		 M46.6,36.6C46.6,36.6,46.6,36.6,46.6,36.6c0.1,0,0.2,0,0.3,0C46.8,36.7,46.7,36.7,46.6,36.6z M39.7,57C39.7,57,39.7,57,39.7,57
		C39.7,57,39.7,57,39.7,57z M39.2,54.4C39.2,54.4,39.2,54.4,39.2,54.4C39.2,54.4,39.2,54.5,39.2,54.4C39.2,54.4,39.2,54.4,39.2,54.4
		C39.2,54.4,39.2,54.4,39.2,54.4z M33.4,47.6C33.4,47.7,33.4,47.7,33.4,47.6C33.4,47.7,33.4,47.7,33.4,47.6
		C33.4,47.7,33.4,47.7,33.4,47.6C33.3,47.7,33.4,47.7,33.4,47.6z M32.4,48.4C32.3,48.4,32.3,48.5,32.4,48.4
		C32.3,48.5,32.3,48.5,32.4,48.4C32.3,48.4,32.3,48.4,32.4,48.4z M32.3,48.6C32.3,48.6,32.3,48.6,32.3,48.6
		C32.2,48.6,32.2,48.6,32.3,48.6C32.2,48.6,32.2,48.6,32.3,48.6C32.2,48.6,32.2,48.6,32.3,48.6z M32.1,48.8c0,0.2-0.1,0.2-0.2,0.2
		C31.9,48.9,32,48.9,32.1,48.8z M28.4,52.4c0,0,0-0.1,0-0.1c0,0,0.1-0.1,0.1,0c0.1,0,0.2,0,0.2,0.1C28.5,52.4,28.5,52.4,28.4,52.4z
		 M30.1,52C30.1,52,30.1,52,30.1,52C30.1,52,30.1,52,30.1,52C30,52,30,52,30.1,52C30,52,30.1,52,30.1,52z M29.9,57
		c0.1,0,0.1,0,0.2,0C30.1,57.1,30,57,29.9,57z M30.3,58.8C30.3,58.8,30.3,58.8,30.3,58.8C30.4,58.8,30.4,58.8,30.3,58.8
		C30.4,58.8,30.4,58.8,30.3,58.8C30.3,58.8,30.3,58.8,30.3,58.8z M46.6,60.6C46.6,60.5,46.6,60.5,46.6,60.6
		C46.6,60.5,46.6,60.5,46.6,60.6C46.6,60.5,46.7,60.5,46.6,60.6C46.7,60.5,46.6,60.5,46.6,60.6z M47.6,37.5c0.1-0.1,0.1-0.1,0.2,0
		C47.8,37.5,47.7,37.5,47.6,37.5z M48.6,37.3C48.6,37.2,48.6,37.2,48.6,37.3C48.6,37.2,48.6,37.2,48.6,37.3
		C48.7,37.2,48.7,37.2,48.6,37.3C48.6,37.2,48.6,37.2,48.6,37.3z M48.7,36.8c-0.1,0-0.2,0-0.4,0c0,0,0,0,0-0.1
		C48.5,36.7,48.6,36.7,48.7,36.8C48.8,36.8,48.7,36.8,48.7,36.8z M49.4,36.9C49.4,36.9,49.4,36.9,49.4,36.9c0,0.1,0,0.1,0,0.1
		C49.4,37,49.3,37,49.4,36.9C49.3,36.9,49.4,36.9,49.4,36.9z M49.4,54.8C49.4,54.8,49.4,54.8,49.4,54.8
		C49.3,54.8,49.4,54.8,49.4,54.8C49.4,54.8,49.4,54.8,49.4,54.8C49.4,54.8,49.4,54.8,49.4,54.8z M50,41.3c-0.1,0-0.2,0-0.2,0
		C49.9,41.3,49.9,41.3,50,41.3C50,41.3,50,41.3,50,41.3z M50.2,36.9C50.1,37,50,37,50,36.8C50.1,36.8,50.1,36.9,50.2,36.9
		C50.2,36.9,50.2,36.9,50.2,36.9z M52,37.1c-0.1,0-0.1-0.1-0.2-0.1c0,0,0,0,0,0c0,0-0.1,0-0.1,0c0,0,0,0,0-0.1c0,0,0.1,0,0.1,0
		c0,0,0,0,0,0c0-0.1,0-0.2,0.2-0.1C52,37,52,37.1,52,37.1z M52.2,37.1c0,0-0.1-0.1-0.2-0.1c0,0,0,0,0-0.1c0.1,0,0.1,0,0.2,0
		C52.4,37.1,52.3,37.1,52.2,37.1z M52.7,37.3C52.7,37.2,52.6,37.2,52.7,37.3c-0.1-0.1,0-0.2,0-0.3c0.1,0.1,0.1,0.1,0.1,0.1
		C52.8,37.2,52.7,37.2,52.7,37.3z M53.1,38.2C53,38.2,53,38.1,53.1,38.2c0-0.1,0-0.1,0-0.1C53.1,38.1,53.1,38.1,53.1,38.2
		C53.1,38.1,53.1,38.2,53.1,38.2z M54.7,37.6C54.7,37.6,54.7,37.6,54.7,37.6c0,0-0.1-0.1-0.1-0.1c0,0,0.1,0,0.1,0
		C54.7,37.5,54.7,37.6,54.7,37.6z M56.1,37.4C56.1,37.4,56,37.4,56.1,37.4C56,37.3,56,37.3,56.1,37.4C56.1,37.3,56.1,37.3,56.1,37.4
		C56.1,37.4,56.1,37.4,56.1,37.4z M56.8,37.2c0.4-0.1,0.4-0.1,0.5,0C57.2,37.2,57,37.2,56.8,37.2z M58.8,37.7
		C58.8,37.7,58.8,37.7,58.8,37.7c0.1-0.1,0.1,0,0.2,0.1C58.9,37.8,58.9,37.8,58.8,37.7z M59.2,37.8C59.2,37.8,59.2,37.7,59.2,37.8
		C59.2,37.7,59.2,37.7,59.2,37.8C59.2,37.7,59.2,37.7,59.2,37.8C59.2,37.8,59.2,37.8,59.2,37.8z M60.2,37.5
		C60.2,37.5,60.2,37.5,60.2,37.5c0-0.1,0.1-0.1,0.1-0.1c0,0,0,0,0,0C60.3,37.5,60.2,37.5,60.2,37.5z M60.5,37.5c0.1,0,0.1,0,0.1,0
		C60.6,37.5,60.6,37.6,60.5,37.5z M63.7,40.5c0.2-0.1,0.2-0.1,0.2,0.1C63.9,40.6,63.8,40.6,63.7,40.5z M64.3,40.5
		C64.3,40.4,64.2,40.4,64.3,40.5c0-0.1,0-0.1,0-0.2C64.4,40.4,64.3,40.4,64.3,40.5z M64.1,39.9c0,0,0,0.1,0,0.2c0.1,0,0.1,0,0.2,0
		c0,0.1-0.1,0.2-0.2,0.2c-0.2,0.1-0.2,0.1-0.5-0.1c0.1-0.2,0.1-0.2-0.1-0.2c0-0.1-0.1-0.2-0.1-0.4c0,0,0.1-0.1,0.1-0.1c0,0,0,0,0,0
		c-0.1,0-0.1-0.1,0-0.2c0.1,0,0.1-0.1,0.2-0.1c0,0,0.1,0,0.1,0c0.1,0.1,0.2,0.2,0.4,0.1c0,0.1-0.1,0.2-0.1,0.2
		c-0.1,0-0.1,0.1-0.1,0.1c0.2-0.1,0.2-0.1,0.3,0c0,0,0.1,0,0.1,0c0,0,0.1,0,0.1,0.1C64.3,39.8,64.2,39.8,64.1,39.9z"/>
	<path class="st0" d="M71,63.7c0-0.1-0.1-0.1-0.1-0.2c-0.1-0.4-0.2-0.7-0.5-1c0,0,0-0.1,0-0.1c-0.1-0.3-0.3-0.6-0.5-0.8
		c0,0.1-0.1,0.1-0.1,0.2c0,0-0.1,0-0.1,0c-0.1-0.1,0.1-0.2,0.1-0.3c-0.1-0.2-0.2-0.3-0.3-0.5c-0.1-0.1-0.2-0.2-0.2-0.3
		c-0.2-0.2-0.5-0.5-0.7-0.7c0,0,0,0,0,0c-0.1-0.2-0.3-0.3-0.5-0.5c-0.2-0.1-0.4-0.2-0.5-0.3c0,0-0.1,0-0.1-0.1
		c-0.2-0.1-0.3-0.1-0.5-0.2c-0.5-0.2-1.1-0.4-1.6-0.4c-0.3,0-0.5-0.1-0.8-0.1c0,0-0.1,0-0.1,0c-0.1,0-0.2,0-0.4,0
		c0.1-0.2,0.1-0.4,0.2-0.5c0-0.1,0.1-0.1,0.1-0.2c0,0,0.1-0.1,0.1-0.1c0-0.1,0.1-0.2,0.2-0.3c0-0.1,0.1-0.1,0.2-0.2
		c0.1-0.2,0.3-0.5,0.4-0.8c0.1-0.1,0.1-0.2,0-0.3c0.1-0.1,0.1-0.1,0.1-0.2c0.1-0.1,0.1-0.2,0.2-0.3c0.1-0.2,0.2-0.4,0.2-0.5
		c0-0.1,0.1-0.2,0.2-0.3c0,0,0,0,0-0.1c0.1-0.4,0.3-0.7,0.3-1.2c0,0,0,0,0-0.1c0.1-0.2,0.2-0.3,0.1-0.5c0,0,0,0,0,0
		c0-0.1,0-0.3,0.1-0.4c0-0.1,0.1-0.2,0.1-0.3c0-0.1,0-0.3,0-0.4c0-0.3,0-0.6,0-1c0,0,0,0,0,0c0-0.2-0.1-0.4-0.1-0.5
		c0-0.1,0-0.2-0.1-0.3c0.1-0.1-0.1-0.3,0-0.4c0-0.1,0-0.3,0-0.4c0-0.2-0.1-0.3-0.2-0.5c-0.1-0.2-0.2-0.5-0.3-0.8
		c-0.1-0.2-0.2-0.3-0.1-0.6c-0.1,0-0.2,0-0.2-0.1c0,0,0-0.1-0.1-0.1c-0.2-0.3-0.3-0.5-0.5-0.8c-0.1-0.2-0.2-0.4-0.3-0.5
		c-0.2-0.2-0.4-0.4-0.6-0.6C64,45,63.9,45,63.8,45c-0.5-0.4-0.9-0.7-1.5-0.9c-0.2,0-0.3-0.1-0.5-0.2c-0.4-0.2-0.7-0.2-1.1-0.2
		c-0.4,0-0.8,0.1-1.2,0.1c-0.3,0-0.5,0.1-0.8,0.2c-0.2,0.1-0.5,0.1-0.8,0.2c-0.2,0.1-0.4,0.1-0.6,0.2c0,0-0.1,0-0.1,0.1
		c0,0.1-0.1,0.1-0.1,0.1c-0.1,0-0.3,0.1-0.4,0.1c-0.2,0.1-0.4,0.2-0.7,0.3c0,0-0.1,0-0.2,0c-0.2,0-0.5,0-0.6,0.2
		c-0.2,0.2-0.3,0.2-0.5,0.2c0,0-0.1,0-0.1,0.1c0,0.1-0.1,0.1-0.2,0.1c-0.2-0.1-0.3,0-0.4,0.1c0,0.2-0.1,0.3-0.3,0.1
		c-0.2,0-0.4,0-0.6,0c0,0-0.1,0-0.1,0.1c-0.2,0.2-0.2,0.4-0.1,0.6c0.1,0.1,0.1,0.3,0.3,0.4c0,0,0,0,0,0.1c0.1,0.1,0.1,0.1,0.2,0.2
		c0.2,0.1,0.4,0.3,0.6,0.4c0.1,0,0.2,0.1,0.3,0.1c0,0,0.1,0.1,0.1,0.1c0.1,0.2,0.1,0.5,0,0.7c0,0.2-0.1,0.5-0.1,0.7
		c0,0.1,0,0.3-0.1,0.4c0,0,0,0.1,0,0.1c0,0.3,0,0.6,0,0.9c0,0.2,0,0.4-0.1,0.6c-0.1,0.1,0,0.2,0,0.4c0,0.3,0,0.5-0.2,0.8
		c0,0,0,0.1,0,0.1c0.1,0.1,0,0.1,0,0.2c0,0.1,0,0.2,0,0.3c0,0.3-0.1,0.6-0.1,0.9c0,0.1,0,0.2,0,0.3c0,0.1,0,0.3,0,0.4
		c-0.1,0.2-0.1,0.3-0.1,0.5c0,0,0,0.1,0,0.1c-0.1,0.1-0.1,0.3,0,0.4c0,0.1,0,0.2,0,0.2c-0.1,0.2-0.1,0.4-0.1,0.6s0,0.4-0.1,0.6
		c0,0.1,0,0.2,0,0.3c0,0.1,0,0.3-0.1,0.4c0,0.2-0.1,0.4-0.2,0.6c-0.1,0.3-0.1,0.6-0.2,0.9c0,0.1-0.1,0.3-0.1,0.4
		c0,0.2-0.1,0.4-0.1,0.6c0,0.1-0.1,0.2-0.1,0.3c0,0.2,0,0.5-0.2,0.7c0,0,0,0.1,0,0.1c0,0.2,0,0.5-0.1,0.7c0,0,0,0.1,0,0.1
		c0,0.1,0,0.2-0.1,0.3c0,0.1,0,0.1-0.1,0.2c0,0.2,0,0.3-0.1,0.5c0,0.1-0.1,0.2,0,0.4c0,0.2,0,0.4-0.2,0.5c0,0-0.1,0.1-0.1,0.1
		c0,0.1,0,0.2-0.1,0.4c-0.1,0.2-0.2,0.3-0.2,0.5c0,0.2-0.2,0.3-0.2,0.5c0,0.1-0.1,0.2-0.1,0.3c-0.1,0.3-0.2,0.6-0.4,0.9
		c0,0.1-0.1,0.2-0.1,0.2c-0.1,0.2-0.2,0.5-0.3,0.7c-0.1,0.2-0.2,0.3-0.3,0.5c-0.1,0.1-0.1,0.2-0.1,0.3c-0.1,0.2-0.3,0.4-0.4,0.6
		c-0.1,0.2-0.2,0.4-0.3,0.6c0,0,0,0.1-0.1,0.1c-0.2,0.2-0.4,0.5-0.4,0.8c0,0,0,0.1,0,0.1c-0.1,0.1-0.3,0.3-0.5,0.3
		c-0.3,0.1-0.3,0.5-0.1,0.7c0.2,0.1,0.4,0.3,0.5,0.4c0.1,0.1,0.2,0.1,0.3,0.1c0.2,0,0.4,0.1,0.6,0.1c0,0,0.1,0,0.1,0.1
		c0.1,0.1,0.1,0.1,0.2,0c0.2,0,0.4-0.1,0.6-0.1c0.3,0,0.7-0.1,1-0.1c0,0,0.1,0,0.1,0c0.2-0.1,0.4-0.1,0.6-0.2c0.2,0,0.3-0.1,0.3-0.3
		c0-0.1,0.1-0.2,0.1-0.3c0,0,0.1-0.1,0.1-0.1c0-0.3,0.4-0.6,0.4-0.9c0-0.1,0.1-0.1,0.2-0.2c0-0.1,0.1-0.1,0.1-0.2
		c0-0.2,0.2-0.4,0.3-0.6c0.1-0.2,0.2-0.4,0.3-0.6c0.1-0.3,0.2-0.7,0.4-1c0.1-0.2,0.1-0.4,0.2-0.5c0.1-0.1,0.1-0.3,0.2-0.5
		c0-0.1,0-0.1,0-0.2c0-0.1,0-0.2,0.1-0.2c0,0,0.1-0.1,0.1-0.2c0.1-0.2,0.1-0.4,0.2-0.6c0-0.1,0-0.2,0.1-0.2c0.1-0.2,0.2-0.4,0.2-0.6
		c0-0.1,0-0.3,0.1-0.5c0.1-0.2,0.2-0.4,0.3-0.6c0,0,0-0.1,0-0.1c0-0.2,0-0.3,0.2-0.3c0,0,0.1-0.1,0.1-0.1c0.1,0.1,0.3,0.2,0.4,0.2
		c0,0,0,0,0.1,0c0.3,0,0.5,0.2,0.8,0.4c0.1,0,0.1,0.1,0.2,0.1c0,0,0.1-0.1,0.1-0.2c0.2,0,0.3,0,0.5-0.1c0.2-0.1,0.5-0.3,0.7-0.4
		c0.3-0.1,0.6-0.3,0.9-0.4c0,0,0.1,0,0.1-0.1c0.1-0.1,0.2-0.1,0.3-0.1c0.1,0,0.2,0,0.3-0.1c0.1,0,0.2-0.1,0.3-0.2
		c0.2-0.1,0.5-0.2,0.7-0.3c0,0,0,0,0.1,0c0.2,0,0.4-0.1,0.6-0.2c0,0,0.1,0,0.1,0c0.2,0,0.3-0.1,0.5-0.1c0.2-0.1,0.4-0.2,0.7-0.2
		c0.2,0,0.4-0.1,0.6-0.2c0.1,0,0.2,0,0.3-0.1c0,0,0.1,0,0.1,0c0.2,0,0.3-0.1,0.5-0.2c0.3-0.1,0.6-0.1,0.9-0.1c0.3,0,0.6-0.1,1-0.1
		c0.5,0,0.9,0,1.3,0.3c0.1,0.1,0.2,0.1,0.3,0.2c0.2,0.2,0.3,0.4,0.4,0.6c0.1,0.1,0.1,0.2,0.1,0.3c0,0.2,0.1,0.5,0.1,0.7
		c0,0.1,0,0.1,0,0.2c0,0.1,0,0.3-0.1,0.4c0,0.2,0,0.3-0.1,0.5c0,0,0,0.1-0.1,0.2c0,0,0,0.1,0,0.1c-0.1,0.2-0.2,0.5-0.3,0.8
		c-0.1,0.1-0.1,0.2-0.2,0.3c-0.1,0.1-0.1,0.2-0.2,0.3c0,0.1-0.1,0.2-0.1,0.2c-0.1,0.2-0.2,0.3-0.3,0.5c-0.1,0.1-0.1,0.2-0.2,0.3
		c-0.2,0.1-0.2,0.3-0.3,0.5c-0.1,0.2-0.2,0.4-0.3,0.5c0,0-0.1,0.1-0.1,0.1c-0.1,0.1-0.2,0.2-0.3,0.3c-0.1,0.1-0.1,0.4-0.3,0.4
		c0,0,0,0,0,0.1c-0.1,0.2-0.3,0.4-0.5,0.6c-0.2,0.2-0.5,0.4-0.7,0.6c-0.2,0.3-0.5,0.6-0.8,0.8c-0.2,0.1-0.3,0.3-0.5,0.4
		c0,0-0.1,0.1-0.2,0.1c-0.1,0.1-0.3,0.2-0.4,0.3c-0.2,0.2-0.4,0.4-0.4,0.6c0,0,0,0,0,0c0,0,0-0.1,0-0.1c-0.1,0-0.1,0.1-0.2,0.1
		c-0.2,0.2-0.4,0.3-0.6,0.4c-0.2,0.2-0.5,0.3-0.8,0.5c-0.2,0.1-0.3,0.2-0.4,0.4c-0.1,0-0.2,0.1-0.2,0.1c0,0.1-0.1,0.1-0.2,0.1
		c-0.2,0.1-0.4,0.2-0.6,0.3c-0.2,0.1-0.3,0.2-0.5,0.2c-0.1,0-0.1,0.1-0.2,0.1c-0.1,0-0.1,0.1-0.2,0.1c-0.3,0.1-0.7,0.2-1,0.3
		c-0.2,0.1-0.4,0.2-0.7,0.2c-0.1,0-0.2,0-0.3,0.1c-0.2,0-0.5,0.1-0.7,0.1c-0.3,0-0.6,0-0.9,0c-0.7,0-1.4,0-2.1-0.2
		c-0.3-0.1-0.6-0.2-0.8-0.4c-0.1-0.1-0.2-0.1-0.3-0.2c-0.2-0.1-0.4-0.3-0.6-0.4c-0.1,0-0.2-0.1-0.2-0.1c-0.2-0.1-0.5,0.1-0.5,0.4
		c0,0.1,0,0.2,0,0.3c0,0.2,0.1,0.4,0.2,0.5c0.5,0.6,1,1.1,1.6,1.5c0.1,0.1,0.2,0.1,0.3,0.2c0.3,0.2,0.5,0.3,0.8,0.5
		c0.2,0.1,0.3,0.3,0.5,0.5c0.1,0.1,0.1,0.1,0.2,0.1c0.1,0,0.2,0,0.3,0.1c0.4,0.1,0.7,0.2,1.1,0.2c0.4,0,0.7,0,1.1,0
		c0.2,0,0.4-0.1,0.6-0.1c0.2,0,0.3-0.1,0.5-0.1c0.1,0,0.3,0,0.4,0c0.1,0,0.1,0,0.2,0c0.1,0,0.1-0.1,0.2-0.1c0.2-0.1,0.4,0,0.5-0.2
		c0,0,0.1,0,0.1,0c0.1,0,0.2,0,0.3-0.1c0,0,0.1,0,0.1-0.1c0.3-0.1,0.6-0.2,0.9-0.3c0.4-0.1,0.7-0.4,1.1-0.5c0.1-0.1,0.2-0.2,0.4-0.2
		c0.3-0.2,0.6-0.4,0.9-0.5c0.2-0.1,0.3-0.2,0.4-0.3c0.2-0.2,0.4-0.3,0.7-0.5c0.1-0.1,0.2-0.2,0.3-0.2c0.4-0.2,0.8-0.5,1-0.9
		c0,0,0.1-0.1,0.2-0.1c0.2-0.1,0.4-0.3,0.6-0.4c0.2-0.1,0.2-0.4,0.5-0.4c0,0,0.1,0,0.1-0.1c0.2-0.2,0.4-0.5,0.7-0.7
		c0.1-0.1,0.2-0.2,0.3-0.2c0.1-0.1,0.2-0.3,0.3-0.3c0.2-0.1,0.3-0.4,0.5-0.6c0.1,0,0.1-0.1,0.2-0.2c0,0,0.1-0.1,0.1-0.1
		c0.1-0.1,0.1-0.2,0.2-0.3c0.1-0.1,0.1-0.3,0.3-0.3c0,0,0.1-0.1,0.1-0.1c0.1-0.1,0.1-0.2,0.2-0.3c0,0,0.1-0.1,0.1-0.1
		c0-0.1,0.1-0.2,0.1-0.2c0.2-0.2,0.3-0.5,0.5-0.7c0.2-0.3,0.4-0.6,0.5-0.9c0.2-0.5,0.5-1,0.7-1.5c0.1-0.3,0.2-0.7,0.2-1
		c0.1-0.4,0-0.8-0.1-1.2C71.1,64.1,71.1,63.9,71,63.7z M66.2,50.2c0,0,0.1,0,0.2,0C66.3,50.2,66.2,50.2,66.2,50.2
		C66.2,50.2,66.2,50.2,66.2,50.2z M65.9,48.7c0,0-0.1,0-0.1,0C65.8,48.6,65.8,48.6,65.9,48.7z M54.9,48.5
		C54.8,48.5,54.8,48.5,54.9,48.5c-0.1-0.1,0-0.1,0-0.2C54.9,48.4,54.9,48.4,54.9,48.5C54.9,48.5,54.9,48.5,54.9,48.5z M55,59.9
		C55,59.9,55,59.9,55,59.9C55,59.9,55,59.9,55,59.9C55.1,59.9,55.1,59.9,55,59.9C55.1,59.9,55,59.9,55,59.9z M63.8,51.7
		c-0.1,0.3-0.2,0.5-0.2,0.8c0,0,0,0,0,0c-0.2,0.1-0.1,0.4-0.2,0.5c-0.1,0.2-0.1,0.4-0.2,0.6c0,0.1,0,0.2-0.1,0.2
		c-0.2,0.1-0.2,0.3-0.3,0.4c-0.1,0.2-0.2,0.3-0.3,0.5c-0.2,0.3-0.4,0.6-0.6,0.9c-0.1,0.2-0.3,0.4-0.4,0.7c0,0,0,0.1-0.1,0.1
		c-0.2,0.2-0.3,0.5-0.5,0.6c-0.2,0.2-0.4,0.3-0.6,0.5c-0.1,0.1-0.2,0.2-0.3,0.3c-0.3,0.3-0.5,0.6-0.8,0.8c-0.1,0.1-0.2,0.1-0.3,0.2
		c-0.2,0.2-0.5,0.4-0.8,0.6c-0.2,0.1-0.3,0.2-0.5,0.3c0,0-0.1,0-0.1,0.1c-0.2,0.3-0.5,0.4-0.8,0.5c-0.1,0.1-0.2,0.1-0.4,0.1
		c-0.1-0.1,0-0.2,0-0.3c0-0.1,0.1-0.3,0.1-0.5c0.1-0.1,0.1-0.2,0.1-0.4c0-0.2,0-0.4,0.1-0.6c0.1-0.1,0.1-0.3,0.1-0.5
		c0-0.1,0-0.2,0-0.4c0-0.1,0.2-0.3,0.1-0.5c0.1-0.2,0-0.4,0.1-0.6c0.2-0.4,0.1-0.8,0.2-1.1c0-0.1,0-0.1,0-0.2c0.1-0.1,0-0.3,0-0.4
		c0,0,0-0.1,0-0.1c0.1-0.2,0.1-0.4,0.2-0.5c0-0.2,0.1-0.5,0.1-0.7c0-0.1,0-0.1,0-0.2c0,0,0-0.1,0-0.1c0.1-0.1,0.1-0.2,0-0.3
		c0,0,0-0.1,0.1-0.2c0,0,0.1,0,0.1-0.1c0-0.2,0-0.5,0-0.7c0,0,0-0.1,0-0.1c0.2-0.2,0.1-0.5,0.1-0.7c0-0.2,0-0.5,0.1-0.8
		c0-0.3,0-0.7,0-1c0-0.1,0-0.1,0-0.2c0-0.1,0-0.2,0-0.3c0-0.1,0-0.2,0-0.4c0-0.2,0-0.4,0-0.6c0,0,0-0.1,0-0.1c0.1-0.3,0-0.5-0.2-0.6
		c0,0,0,0,0,0c0.3-0.1,0.5-0.2,0.8-0.3c0.3-0.1,0.6-0.3,1-0.4c0.1,0,0.2-0.1,0.4-0.1c0.1,0,0.1,0,0.2-0.1c0.1-0.1,0.2-0.1,0.3-0.1
		c0.1,0,0.1,0,0.2-0.1c0.2-0.1,0.4-0.1,0.6-0.2c0.2-0.1,0.5-0.1,0.8-0.2c0.3,0,0.7,0,1,0c0,0,0.1,0,0.1,0c0.1,0,0.2,0,0.2,0.1
		c0.2,0.2,0.3,0.4,0.4,0.7c0.1,0.2,0.2,0.4,0.2,0.7c0.1,0.2,0.2,0.5,0.2,0.8s0.1,0.5,0.1,0.8c0,0.3,0,0.6,0,0.8c0,0.1,0,0.3-0.1,0.4
		c0,0.2-0.1,0.4-0.1,0.6C63.9,51.2,63.8,51.5,63.8,51.7z M66.7,60.1C66.7,60.1,66.7,60,66.7,60.1C66.7,60,66.7,60,66.7,60.1
		C66.8,60,66.8,60,66.7,60.1C66.8,60.1,66.7,60.1,66.7,60.1z M63,72.2c0,0-0.1,0-0.1,0c0,0,0,0,0-0.1C62.9,72.1,63,72.1,63,72.2
		C63,72.2,63,72.2,63,72.2z"/>
	<path class="st0" d="M47,78c-0.1-0.1-0.2-0.1-0.2-0.2c-0.2-0.1-0.3-0.1-0.5-0.2c-0.3-0.2-0.6-0.3-0.9-0.4c-0.5-0.2-1.1-0.4-1.7-0.6
		c-0.1,0-0.2,0-0.3,0c-0.2,0-0.3,0-0.4-0.1c0,0-0.1-0.1-0.2-0.1c-0.1,0-0.2,0-0.4,0c0,0.1-0.1,0.1-0.2,0.1c-0.1,0-0.2-0.1-0.3-0.1
		c-0.4,0-0.7-0.1-1.1-0.1c-0.1,0-0.2,0-0.2,0c-0.3,0-0.5,0-0.8,0c-0.1,0-0.3-0.1-0.4-0.1c-0.7,0-1.3,0-1.9,0c-0.1,0-0.2,0-0.4,0
		c-0.4,0.1-0.9,0.1-1.3,0.2c-0.2,0.1-0.2,0-0.3,0.3c0.2,0,0.3,0.1,0.5,0.2c0,0,0.1,0,0.1,0c0.1,0,0.2,0,0.3,0c0.2,0,0.4,0,0.5,0.3
		c0,0,0.1,0.1,0.1,0.1c0.1,0,0.2,0,0.3,0.2c0,0,0.1,0,0.1,0c0.2,0,0.3,0.1,0.4,0.2c0.1,0,0.2,0,0.4,0c0.1,0,0.2,0,0.2,0.1
		c0.2,0.2,0.4,0.2,0.6,0.2c0.1,0,0.2,0,0.3,0.1c0.1,0.1,0.2,0.2,0.4,0.2c0.2,0,0.4,0.1,0.5,0.1c0.1,0,0.1,0,0.2,0.1
		c0.2,0.1,0.4,0.1,0.6,0.2c0.2,0,0.4,0,0.6,0.1c0.2,0,0.4,0.1,0.6,0.2c0,0,0.1,0,0.2,0.1c0.2,0.2,0.3,0.3,0.5,0.3
		c0.2,0.1,0.5,0.2,0.7,0.3c0,0,0.1,0,0.2,0c0.1,0,0.2,0,0.2,0.1c0.2,0.3,0.5,0.4,0.7,0.6c0.2,0.2,0.5,0.2,0.7,0.4
		c0.2,0.1,0.3,0.2,0.5,0.3c0.1,0.1,0.1,0.2,0.2,0.2c0.1,0.1,0.2,0.1,0.4,0.1c0.1,0,0.3,0,0.3-0.2c0,0,0.1-0.1,0.1-0.1
		c0.2-0.2,0.4-0.5,0.4-0.9c0-0.1,0-0.3,0.1-0.4c0.1-0.1,0.1-0.2,0.1-0.3c0-0.2,0-0.3,0-0.5c0-0.2,0-0.4,0.1-0.6
		c-0.1,0-0.1-0.1-0.1-0.1C47.2,78.3,47.1,78.2,47,78z"/>
	<path class="st0" d="M67.5,37.6c-0.1,0-0.1,0-0.1,0c-0.2,0-0.5,0-0.7,0c-0.1,0-0.3,0-0.4,0C66.6,37.7,67,37.7,67.5,37.6
		C67.4,37.7,67.4,37.7,67.5,37.6z"/>
	<path class="st0" d="M33.2,35.6c-0.2,0-0.3-0.1-0.5,0C33,35.7,33.1,35.7,33.2,35.6z"/>
	<path class="st0" d="M50.6,36.6c-0.1-0.1-0.2-0.1-0.3-0.1C50.5,36.6,50.5,36.6,50.6,36.6z"/>
	<path class="st0" d="M65.6,37.5c0.3,0.1,0.3,0.1,0.5,0C65.9,37.5,65.7,37.5,65.6,37.5z"/>
	<path class="st0" d="M49.8,36.5c-0.2,0-0.3,0-0.4,0C49.6,36.5,49.7,36.6,49.8,36.5z"/>
	<path class="st0" d="M32,49.2c-0.1,0.1-0.1,0.1-0.1,0.2C32,49.4,32,49.4,32,49.2z"/>
	<path class="st0" d="M55.2,36.9c-0.1,0-0.1,0-0.2,0c0,0,0,0,0,0C55.1,37,55.1,37,55.2,36.9C55.2,37,55.2,36.9,55.2,36.9z"/>
	<path class="st0" d="M33.6,35.6C33.6,35.6,33.6,35.6,33.6,35.6c-0.1,0-0.1,0-0.2,0c0,0,0,0,0,0C33.5,35.6,33.6,35.6,33.6,35.6
		C33.6,35.6,33.6,35.6,33.6,35.6z"/>
	<path class="st0" d="M58,36.9C57.9,36.9,57.9,36.9,58,36.9C57.9,36.9,57.9,37,58,36.9C57.9,37,57.9,37,58,36.9
		C58,36.9,58,36.9,58,36.9z"/>
	<path class="st0" d="M65.4,37.5C65.3,37.6,65.3,37.6,65.4,37.5C65.4,37.6,65.4,37.6,65.4,37.5C65.4,37.6,65.4,37.6,65.4,37.5
		C65.4,37.6,65.4,37.6,65.4,37.5z"/>
	<path class="st0" d="M53.7,36.6c0,0-0.1,0-0.1,0c0,0,0,0,0,0C53.6,36.6,53.6,36.6,53.7,36.6C53.7,36.6,53.7,36.6,53.7,36.6z"/>
	<path class="st0" d="M59,37C59,37,59,37,59,37C59,37,58.9,37,59,37C58.9,37.1,59,37.1,59,37C59,37.1,59,37,59,37z"/>
	<path class="st0" d="M63.7,39.8C63.8,39.8,63.8,39.8,63.7,39.8c0.1,0,0.2-0.1,0.2-0.2c-0.1,0-0.1-0.1-0.2-0.1
		C63.7,39.7,63.7,39.8,63.7,39.8z"/>
	<path class="st0" d="M50,7.7C24.4,7.7,3.6,28.5,3.6,54c0,25.6,20.8,46.3,46.4,46.3S96.3,79.6,96.3,54C96.3,28.5,75.6,7.7,50,7.7z
		 M50,98.4C25.5,98.4,5.6,78.5,5.6,54C5.6,29.6,25.5,9.7,50,9.7c24.5,0,44.4,19.9,44.4,44.4C94.4,78.5,74.5,98.4,50,98.4z"/>
</g>
</svg>
