<?xml version="1.0" encoding="utf-8"?>
<!-- Generator: Adobe Illustrator 23.0.1, SVG Export Plug-In . SVG Version: 6.00 Build 0)  -->
<svg version="1.1" id="Calque_1" xmlns="http://www.w3.org/2000/svg" xmlns:xlink="http://www.w3.org/1999/xlink" x="0px" y="0px"
	 viewBox="0 0 100 100" style="enable-background:new 0 0 100 100;" xml:space="preserve">
<style type="text/css">
	.st0{fill:#FCFCFC;}
</style>
<path class="st0" d="M58.2,43.6c-0.2-0.2-0.4-0.3-0.6-0.4c-0.3-0.2-0.8-0.2-1-0.5c-0.4-0.1-0.8-0.3-1.2-0.3c-0.4,0-0.6,0.2-0.9,0.3
	c0,0,0.1,0,0.1,0.1c-0.1,0,0,0.1-0.1,0c-0.6,0.6,0.3,0.6,0.7,0.6c0.8,0,1.7,0.3,2.4,0.7c0.1,0,0.5,0.2,0.5,0.5
	c0,0.3-1.3,0.3-1.5,0.3c0,0,0,0.1-0.1,0.1C56.5,44.9,56,45,56,45c0,0,0.3,0,0.3,0.1c-0.1,0-0.2,0-0.3,0c0-0.1-0.2,0-0.3-0.1
	c0.1,0,0.2,0,0.3,0c-0.1-0.1-0.4-0.1-0.5,0c0.1,0,0.1,0,0.2,0.1c-0.1,0-0.3,0-0.4,0c-0.2,0-1.4,0-1.4-0.1c-0.1-0.1-0.5-0.1-0.6-0.1
	c0,0-0.5-0.1-0.6-0.1c0.1,0,0.1,0.1,0,0.1c-0.1,0-0.1-0.1-0.3-0.1c0,0.1,0,0,0,0c-0.2,0-0.5,0-0.7,0c-0.1,0-0.4-0.1-0.3,0
	c-0.2,0,0-0.1,0-0.1c0,0-0.2,0.1-0.2,0.1c0,0-0.5,0-0.6,0c0.1,0.1-0.1,0-0.2,0c0,0,0,0,0-0.1c-0.1,0-0.1,0-0.2,0
	c0,0.2-1.1-0.1-1.2-0.1l0,0c-0.3,0-0.5-0.1-0.8-0.1c0,0,0-0.1,0.1,0c0,0-0.4,0-0.4-0.1c-0.1,0.1-0.5,0-0.5,0c-0.1,0-0.7-0.1-0.7,0
	c0,0,0,0,0,0c-0.1,0-0.1,0,0-0.1c-0.1,0-0.6,0.2-0.5,0.1c-0.1,0-0.2,0-0.3,0l0,0c-0.1,0-0.1,0-0.2,0c0,0,0,0,0.1,0
	c-0.1,0.1-0.1,0.1-0.2,0c0,0,0,0,0.1,0c-0.2,0-0.3,0-0.5,0l0,0c-0.1,0-0.5,0.1-0.6,0c0,0-0.1,0-0.1,0c0,0,0.1,0,0.1,0
	c-0.1,0-0.3,0.1-0.4,0c0,0,0.1,0,0.1,0c-0.2,0-0.2,0.1-0.4,0.1c-0.1,0-0.4,0-0.6,0.1c0,0,0,0,0,0c0,0-0.7,0.2-0.8,0.3
	c-0.1,0.2-0.1,0.7,0,0.9c0,0.1,0,0.4,0.1,0.4c0.3,0.1,0.1-0.2,0.3-0.3c0.1-0.1,1.2-0.3,1.2-0.3c0.4,0.2,1.2-0.1,1.7-0.1
	c0.4,0,0.8,0,1.2,0c0.5,0,1,0.1,1.4,0.1c0.3,0,0.9-0.1,1.1,0c0,0.1-0.3,0.3-0.4,0.5c0,0.1,0,0.3,0,0.4c0,0.2-0.1,1.2,0,1.3
	c-0.1,0,0,0.1,0,0.1c0,0.4,0,1.1-0.1,1.3c0,0.5-0.2,1.3-0.3,1.8c-0.1,0.6-0.3,1.8-0.7,2.2c-0.2,1-1.6,3.1-2.8,2.4
	c-0.5-0.3-0.9-1.2-1-1.7c-0.1-0.4,0-1.1-0.2-1.4c0.1-0.1,0.1-0.7,0-0.8c0-0.2,0.1-2,0.1-2c0.3-0.3,0.2-0.8,0.4-1.1
	c0.6-0.6,0.8-0.1,1.1,0.4c0.2,0.5,0.2,2,0.7,2.2c1.1,0.5,0.5-1.3,0.4-1.3c0.2-0.2-0.2-1.1-0.4-1.4c-0.5-0.6-1.5-1-2.2-0.5
	c-1,0.7-0.8,2.5-0.8,3.6c0,1.4,0.3,3.7,1.8,4.3c2.1,0.9,3.4-1,4.2-2.6c0.3-0.7,0.5-1.5,0.6-2.2c0.1-0.3,0.4-1.5,0.2-1.7
	c0-0.1,0.1-0.5,0-0.5c0.2-0.2,0.1-1.3,0.1-1.5c0-0.3-0.2-1.4-0.1-1.5c0.1-0.1,1.5-0.1,1.6,0c0,0,1,0,1.1,0.1c0.1,0,1.1,0.1,1.1,0
	c0.1,0.1,0.3,0,0.3,0c0,0,0,0,0,0c0.1,0,0.1,0,0.1,0c0,0,0.1,0,0.1,0c0,0,0,0,0,0c0,0,0,0,0,0c0.2,0.2,2.1,0.2,2.1,0.1
	c0.3,0.1,0.9-0.2,1.1-0.3C58.3,45.1,58.2,44.2,58.2,43.6z M55.9,42.7C55.8,42.7,55.8,42.7,55.9,42.7C55.9,42.7,55.9,42.7,55.9,42.7z
	 M56.9,43.3c0,0-0.1,0,0-0.1C56.9,43.2,56.9,43.2,56.9,43.3z M43.4,44.5C43.5,44.5,43.5,44.5,43.4,44.5
	C43.5,44.6,43.5,44.6,43.4,44.5z M45.1,44.5C45.1,44.5,45.1,44.4,45.1,44.5C45.1,44.4,45.2,44.4,45.1,44.5z M46,44.4
	C46,44.4,46,44.4,46,44.4z M46.4,44.4C46.4,44.4,46.4,44.4,46.4,44.4C46.5,44.4,46.4,44.4,46.4,44.4z M47.4,44.6
	C47.3,44.5,47.3,44.5,47.4,44.6C47.4,44.5,47.5,44.6,47.4,44.6z M47.5,44.5C47.5,44.5,47.5,44.5,47.5,44.5z M47.8,44.5
	C47.8,44.5,47.8,44.5,47.8,44.5C47.9,44.5,47.9,44.5,47.8,44.5C47.9,44.5,47.9,44.5,47.8,44.5z M49,44.6C49,44.6,49,44.6,49,44.6
	C49,44.6,49,44.6,49,44.6z M49.3,44.9C49.3,44.8,49.3,44.8,49.3,44.9C49.3,44.9,49.3,44.9,49.3,44.9z M44.5,48.4
	C44.5,48.4,44.4,48.4,44.5,48.4C44.4,48.4,44.4,48.4,44.5,48.4z M43.8,50.9C43.8,50.9,43.8,50.9,43.8,50.9
	C43.8,51,43.8,50.9,43.8,50.9z M49.5,44.7c0-0.1,0-0.1,0.1,0C49.6,44.7,49.5,44.7,49.5,44.7z M49.8,44.7
	C49.8,44.7,49.8,44.7,49.8,44.7C49.8,44.7,49.8,44.7,49.8,44.7z M50,44.7C50,44.7,50,44.7,50,44.7C50,44.7,50,44.7,50,44.7z
	 M50.9,44.8C50.9,44.8,50.8,44.8,50.9,44.8C50.8,44.8,50.9,44.7,50.9,44.8C50.9,44.7,50.9,44.8,50.9,44.8z M51,45.1
	C50.9,45.1,50.9,45.1,51,45.1L51,45.1z M51.5,44.9L51.5,44.9C51.5,44.9,51.5,44.9,51.5,44.9z M52.1,44.8c0.1,0,0.1,0,0.2,0
	C52.3,44.8,52.2,44.8,52.1,44.8z M52.7,44.9C52.8,44.9,52.8,44.9,52.7,44.9C52.8,45,52.8,45,52.7,44.9z M53.2,44.9
	C53.2,44.8,53.2,44.8,53.2,44.9C53.2,44.9,53.2,44.9,53.2,44.9z M53.3,44.9C53.3,44.9,53.3,44.9,53.3,44.9
	C53.3,44.9,53.3,44.9,53.3,44.9z M54.4,45.6C54.4,45.7,54.4,45.7,54.4,45.6c0.1,0.2-0.2,0-0.2-0.1c-0.1,0,0.3-0.1,0.2-0.1
	C54.4,45.5,54.4,45.5,54.4,45.6c0-0.1,0.1-0.1,0.1-0.1C54.5,45.6,54.4,45.6,54.4,45.6z"/>
<path class="st0" d="M56.5,53c0-0.1-0.3-0.6-0.3-0.7c0,0.1-0.4-0.5-0.6-0.7c-0.4-0.3-0.8-0.3-1.2-0.3c0.3-0.5,0.5-1,0.7-1.6
	c0.1-0.3,0.1-0.6,0.1-1c0-0.3-0.3-0.7-0.2-0.9c-0.2,0-0.3-0.5-0.4-0.6c-0.2-0.2-0.5-0.4-0.8-0.5c-0.6-0.2-1.1,0.1-1.6,0.2
	c-0.3,0.1-0.6,0.2-0.8,0.3c-0.3,0.2-0.4,0.1-0.3,0.5c0.1,0.3,0.3,0,0.3,0.4c0,0.1,0,0.5-0.1,0.7c0,0.3-0.1,0.6-0.1,0.9
	c-0.1,0.8-0.2,1.6-0.4,2.4c-0.2,0.7-0.3,1.3-0.7,2c-0.2,0.3-0.4,0.6-0.5,1c-0.1,0.2-0.4,0.1,0,0.4c0.1,0.1,0.4,0.1,0.6,0.1
	c0.9,0,1.1-1.1,1.4-1.8c0.1-0.2,0.2-0.9,0.3-1c0.1-0.1,0.2,0.1,0.3,0.1c0.1,0,0.1,0.1,0.2,0.1c0,0,0.4-0.2,0.4-0.2
	c0.7-0.3,2.4-1.2,3-0.6c0.4,0.4,0.1,1-0.1,1.3c-0.1,0.1-0.5,0.9-0.6,0.9c-0.1,0.3-1.1,0.8-1.1,1.1c-0.3,0.1-0.8,0.5-1.1,0.7
	c-0.3,0.1-0.7,0.2-1,0.2c-0.5,0-0.8-0.2-1.2-0.3c-0.8-0.1,0.3,0.9,0.7,1c0.5,0.3,1.1,0.2,1.6,0.1c1-0.3,1.9-1,2.6-1.7
	c0.2-0.2,0.5-0.4,0.7-0.7c0.2-0.2,0.3-0.5,0.5-0.8c0.1-0.2,0.2-0.4,0.2-0.7C56.8,53.1,56.7,53.3,56.5,53z M55,48.4L55,48.4
	C54.9,48.3,54.9,48.3,55,48.4z M51.5,48.3C51.5,48.3,51.5,48.3,51.5,48.3C51.5,48.3,51.5,48.3,51.5,48.3z M54.4,48.6
	c0,0.7-0.3,1.4-0.7,2C53.3,51,52.6,52,52,52c-0.2-0.2,0.3-1.8,0.3-2.1c0-0.3,0.4-1.8,0.1-2c0.4-0.1,0.8-0.4,1.2-0.4
	C54.3,47.3,54.4,48,54.4,48.6z M54,55.6C54,55.6,54,55.6,54,55.6z"/>
<path class="st0" d="M49.2,57.5c-0.2,0-0.7-0.4-0.9-0.4C48.1,57,47.8,57,47.6,57c-0.3,0-1.9-0.3-2.1,0.1c0.3,0,0.6,0.2,0.8,0.3
	c0.4,0.2,0.9,0.3,1.3,0.4c0.3,0.1,0.8,0.6,1.1,0.7C49.3,58.5,49.1,58,49.2,57.5C49.2,57.6,49.2,57.5,49.2,57.5z"/>
<path class="st0" d="M50,35.6c-6,0-11.5,3.8-13.5,9.5c-2.1,5.7-0.3,12.2,4.4,16c4.6,3.8,11.4,4.3,16.5,1.2c5.1-3.1,7.8-9.2,6.7-15
	C62.8,40.6,56.8,35.6,50,35.6z M50,63.8c-5.7,0-10.9-3.6-12.9-9c-2-5.4-0.3-11.7,4.1-15.4c4.4-3.7,10.9-4.2,15.8-1.2
	c5,3,7.6,8.9,6.4,14.6C62.2,59.1,56.5,63.8,50,63.8z"/>
</svg>
